<svg xmlns="http://www.w3.org/2000/svg" viewBox="0 0 512 512">
  <rect width="512" height="512" rx="96" fill="#060D14"/>
  <path d="M256 75 C196 75 152 118 152 172 C152 204 163 230 168 262 C179 322 190 396 217 438 C226 454 238 460 256 460 C274 460 286 454 295 438 C322 396 333 322 344 262 C349 230 360 204 360 172 C360 118 316 75 256 75Z" fill="#00C2A8"/>
  <path d="M256 108 C210 108 178 138 178 172 C178 197 187 218 191 244 L321 244 C325 218 334 197 334 172 C334 138 302 108 256 108Z" fill="rgba(255,255,255,0.18)"/>
</svg>
